<svg width="91" height="56" viewBox="0 0 91 56" fill="none" xmlns="http://www.w3.org/2000/svg">
<rect x="0.5" y="4.5" width="39.0909" height="48" fill="#FFFCEE" stroke="#3A4042"/>
<rect x="2.96973" y="6.96973" width="7.42424" height="7.42424" fill="#F0656A"/>
<rect x="2.96973" y="6.96973" width="7.42424" height="7.42424" fill="#F0656A"/>
<rect x="2.96973" y="15.8788" width="7.42424" height="7.42424" fill="#F0656A"/>
<rect x="2.96973" y="24.7878" width="7.42424" height="7.42424" fill="#F0656A"/>
<rect x="2.96973" y="33.697" width="7.42424" height="7.42424" fill="#F0656A"/>
<rect x="2.96973" y="42.6061" width="7.42424" height="7.42424" fill="#F0656A"/>
<rect x="11.8789" y="24.7878" width="7.42424" height="7.42424" fill="#F0656A"/>
<rect x="20.788" y="24.7878" width="7.42424" height="7.42424" fill="#542281"/>
<rect x="20.788" y="33.697" width="7.42424" height="7.42424" fill="#542281"/>
<rect x="20.788" y="42.6061" width="7.42424" height="7.42424" fill="#542281"/>
<rect x="29.697" y="42.6061" width="7.42424" height="7.42424" fill="#542281"/>
<rect x="11.8789" y="6.96973" width="7.42424" height="7.42424" fill="#F0656A"/>
<rect x="20.788" y="6.96973" width="7.42424" height="7.42424" fill="#F0656A"/>
<path d="M46.8 9.6C46.72 9.26 46.68 8.86 46.68 8.4C46.68 7.92 46.72 7.52 46.8 7.2H49.2C49.28 7.52 49.32 7.92 49.32 8.4C49.32 8.86 49.28 9.26 49.2 9.6H46.8ZM51.6 21.6C51.68 21.92 51.72 22.32 51.72 22.8C51.72 23.26 51.68 23.66 51.6 24H44.4C44.32 23.66 44.28 23.26 44.28 22.8C44.28 22.32 44.32 21.92 44.4 21.6H46.8C46.72 21.26 46.68 20.86 46.68 20.4C46.68 19.92 46.72 19.52 46.8 19.2C46.72 18.86 46.68 18.46 46.68 18C46.68 17.52 46.72 17.12 46.8 16.8C46.72 16.46 46.68 16.06 46.68 15.6C46.68 15.12 46.72 14.72 46.8 14.4H45C44.92 14.06 44.88 13.66 44.88 13.2C44.88 12.72 44.92 12.32 45 12H49.2C49.28 12.32 49.32 12.72 49.32 13.2C49.32 13.66 49.28 14.06 49.2 14.4C49.28 14.72 49.32 15.12 49.32 15.6C49.32 16.06 49.28 16.46 49.2 16.8C49.28 17.12 49.32 17.52 49.32 18C49.32 18.46 49.28 18.86 49.2 19.2C49.28 19.52 49.32 19.92 49.32 20.4C49.32 20.86 49.28 21.26 49.2 21.6H51.6ZM64.9117 14.4C64.9917 14.72 65.0317 15.12 65.0317 15.6C65.0317 16.06 64.9917 16.46 64.9117 16.8H62.5117C62.4317 16.46 62.3917 16.06 62.3917 15.6C62.3917 15.12 62.4317 14.72 62.5117 14.4H60.4117C60.4917 14.72 60.5317 15.12 60.5317 15.6C60.5317 16.06 60.4917 16.46 60.4117 16.8H59.5117C59.5917 17.12 59.6317 17.52 59.6317 18C59.6317 18.46 59.5917 18.86 59.5117 19.2C59.5917 19.52 59.6317 19.92 59.6317 20.4C59.6317 20.86 59.5917 21.26 59.5117 21.6H61.3117C61.3917 21.92 61.4317 22.32 61.4317 22.8C61.4317 23.26 61.3917 23.66 61.3117 24H55.3117C55.2317 23.66 55.1917 23.26 55.1917 22.8C55.1917 22.32 55.2317 21.92 55.3117 21.6H57.1117C57.0317 21.26 56.9917 20.86 56.9917 20.4C56.9917 19.92 57.0317 19.52 57.1117 19.2C57.0317 18.86 56.9917 18.46 56.9917 18C56.9917 17.52 57.0317 17.12 57.1117 16.8C57.0317 16.46 56.9917 16.06 56.9917 15.6C56.9917 15.12 57.0317 14.72 57.1117 14.4H55.3117C55.2317 14.06 55.1917 13.66 55.1917 13.2C55.1917 12.72 55.2317 12.32 55.3117 12H58.3117C58.3917 12.32 58.4317 12.72 58.4317 13.2C58.4317 13.66 58.3917 14.06 58.3117 14.4H59.5117C59.4317 14.06 59.3917 13.66 59.3917 13.2C59.3917 12.72 59.4317 12.32 59.5117 12H64.0117C64.0917 12.32 64.1317 12.72 64.1317 13.2C64.1317 13.66 64.0917 14.06 64.0117 14.4H64.9117ZM77.1434 15.6C77.1434 16.06 77.1034 16.46 77.0234 16.8C77.1034 17.12 77.1434 17.52 77.1434 18C77.1434 18.46 77.1034 18.86 77.0234 19.2H70.7234C70.8034 19.52 70.8434 19.92 70.8434 20.4C70.8434 20.86 70.8034 21.26 70.7234 21.6H75.8234C75.9034 21.92 75.9434 22.32 75.9434 22.8C75.9434 23.26 75.9034 23.66 75.8234 24H69.8234C69.7434 23.66 69.7034 23.26 69.7034 22.8C69.7034 22.32 69.7434 21.92 69.8234 21.6H68.3234C68.2434 21.26 68.2034 20.86 68.2034 20.4C68.2034 19.92 68.2434 19.52 68.3234 19.2H67.4234C67.3434 18.86 67.3034 18.46 67.3034 18C67.3034 17.52 67.3434 17.12 67.4234 16.8H68.3234C68.2434 16.46 68.2034 16.06 68.2034 15.6C68.2034 15.12 68.2434 14.72 68.3234 14.4H69.8234C69.7434 14.06 69.7034 13.66 69.7034 13.2C69.7034 12.72 69.7434 12.32 69.8234 12H75.8234C75.9034 12.32 75.9434 12.72 75.9434 13.2C75.9434 13.66 75.9034 14.06 75.8234 14.4H77.0234C77.1034 14.72 77.1434 15.12 77.1434 15.6ZM74.6234 16.8C74.5434 16.46 74.5034 16.06 74.5034 15.6C74.5034 15.12 74.5434 14.72 74.6234 14.4H70.7234C70.8034 14.72 70.8434 15.12 70.8434 15.6C70.8434 16.06 70.8034 16.46 70.7234 16.8H74.6234ZM89.1352 9.6C89.2152 9.92 89.2552 10.32 89.2552 10.8C89.2552 11.26 89.2152 11.66 89.1352 12C89.2152 12.32 89.2552 12.72 89.2552 13.2C89.2552 13.66 89.2152 14.06 89.1352 14.4C89.2152 14.72 89.2552 15.12 89.2552 15.6C89.2552 16.06 89.2152 16.46 89.1352 16.8C89.2152 17.12 89.2552 17.52 89.2552 18C89.2552 18.46 89.2152 18.86 89.1352 19.2C89.2152 19.52 89.2552 19.92 89.2552 20.4C89.2552 20.86 89.2152 21.26 89.1352 21.6C89.2152 21.92 89.2552 22.32 89.2552 22.8C89.2552 23.26 89.2152 23.66 89.1352 24H86.7352C86.6552 23.66 86.6152 23.26 86.6152 22.8C86.6152 22.32 86.6552 21.92 86.7352 21.6H85.8352C85.7552 21.26 85.7152 20.86 85.7152 20.4C85.7152 19.92 85.7552 19.52 85.8352 19.2H86.7352C86.6552 18.86 86.6152 18.46 86.6152 18C86.6152 17.52 86.6552 17.12 86.7352 16.8H85.8352C85.7552 16.46 85.7152 16.06 85.7152 15.6C85.7152 15.12 85.7552 14.72 85.8352 14.4H86.7352C86.6552 14.06 86.6152 13.66 86.6152 13.2C86.6152 12.72 86.6552 12.32 86.7352 12C86.6552 11.66 86.6152 11.26 86.6152 10.8C86.6152 10.32 86.6552 9.92 86.7352 9.6C86.6552 9.26 86.6152 8.86 86.6152 8.4C86.6152 7.92 86.6552 7.52 86.7352 7.2H89.1352C89.2152 7.52 89.2552 7.92 89.2552 8.4C89.2552 8.86 89.2152 9.26 89.1352 9.6ZM85.3552 13.2C85.3552 13.66 85.3152 14.06 85.2352 14.4H82.2352C82.3152 14.72 82.3552 15.12 82.3552 15.6C82.3552 16.06 82.3152 16.46 82.2352 16.8H81.3352C81.4152 17.12 81.4552 17.52 81.4552 18C81.4552 18.46 81.4152 18.86 81.3352 19.2H82.2352C82.3152 19.52 82.3552 19.92 82.3552 20.4C82.3552 20.86 82.3152 21.26 82.2352 21.6H85.2352C85.3152 21.92 85.3552 22.32 85.3552 22.8C85.3552 23.26 85.3152 23.66 85.2352 24H81.9352C81.8552 23.66 81.8152 23.26 81.8152 22.8C81.8152 22.32 81.8552 21.92 81.9352 21.6H80.4352C80.3552 21.26 80.3152 20.86 80.3152 20.4C80.3152 19.92 80.3552 19.52 80.4352 19.2H79.5352C79.4552 18.86 79.4152 18.46 79.4152 18C79.4152 17.52 79.4552 17.12 79.5352 16.8H80.4352C80.3552 16.46 80.3152 16.06 80.3152 15.6C80.3152 15.12 80.3552 14.72 80.4352 14.4H81.9352C81.8552 14.06 81.8152 13.66 81.8152 13.2C81.8152 12.72 81.8552 12.32 81.9352 12H85.2352C85.3152 12.32 85.3552 12.72 85.3552 13.2Z" fill="#F0656A"/>
<path d="M53.8 47.6C53.88 47.92 53.92 48.32 53.92 48.8C53.92 49.26 53.88 49.66 53.8 50H51.4C51.32 49.66 51.28 49.26 51.28 48.8C51.28 48.32 51.32 47.92 51.4 47.6H50.2C50.12 47.26 50.08 46.86 50.08 46.4C50.08 45.92 50.12 45.52 50.2 45.2H46.6C46.68 45.52 46.72 45.92 46.72 46.4C46.72 46.86 46.68 47.26 46.6 47.6H50.2C50.28 47.92 50.32 48.32 50.32 48.8C50.32 49.26 50.28 49.66 50.2 50H45.4C45.32 49.66 45.28 49.26 45.28 48.8C45.28 48.32 45.32 47.92 45.4 47.6H44.2C44.12 47.26 44.08 46.86 44.08 46.4C44.08 45.92 44.12 45.52 44.2 45.2H45.4C45.32 44.86 45.28 44.46 45.28 44C45.28 43.52 45.32 43.12 45.4 42.8H50.2C50.12 42.46 50.08 42.06 50.08 41.6C50.08 41.12 50.12 40.72 50.2 40.4H46C45.92 40.06 45.88 39.66 45.88 39.2C45.88 38.72 45.92 38.32 46 38H51.4C51.48 38.32 51.52 38.72 51.52 39.2C51.52 39.66 51.48 40.06 51.4 40.4H52.6C52.68 40.72 52.72 41.12 52.72 41.6C52.72 42.06 52.68 42.46 52.6 42.8C52.68 43.12 52.72 43.52 52.72 44C52.72 44.46 52.68 44.86 52.6 45.2C52.68 45.52 52.72 45.92 52.72 46.4C52.72 46.86 52.68 47.26 52.6 47.6H53.8ZM58.7117 45.2C58.7917 45.52 58.8317 45.92 58.8317 46.4C58.8317 46.86 58.7917 47.26 58.7117 47.6H57.5117C57.5917 47.92 57.6317 48.32 57.6317 48.8C57.6317 49.26 57.5917 49.66 57.5117 50H56.3117C56.2317 49.66 56.1917 49.26 56.1917 48.8C56.1917 48.32 56.2317 47.92 56.3117 47.6C56.2317 47.26 56.1917 46.86 56.1917 46.4C56.1917 45.92 56.2317 45.52 56.3117 45.2C56.2317 44.86 56.1917 44.46 56.1917 44C56.1917 43.52 56.2317 43.12 56.3117 42.8C56.2317 42.46 56.1917 42.06 56.1917 41.6C56.1917 41.12 56.2317 40.72 56.3117 40.4C56.2317 40.06 56.1917 39.66 56.1917 39.2C56.1917 38.72 56.2317 38.32 56.3117 38C56.2317 37.66 56.1917 37.26 56.1917 36.8C56.1917 36.32 56.2317 35.92 56.3117 35.6C56.2317 35.26 56.1917 34.86 56.1917 34.4C56.1917 33.92 56.2317 33.52 56.3117 33.2H58.7117C58.7917 33.52 58.8317 33.92 58.8317 34.4C58.8317 34.86 58.7917 35.26 58.7117 35.6C58.7917 35.92 58.8317 36.32 58.8317 36.8C58.8317 37.26 58.7917 37.66 58.7117 38C58.7917 38.32 58.8317 38.72 58.8317 39.2C58.8317 39.66 58.7917 40.06 58.7117 40.4H59.9117C59.9917 40.72 60.0317 41.12 60.0317 41.6C60.0317 42.06 59.9917 42.46 59.9117 42.8H58.7117C58.7917 43.12 58.8317 43.52 58.8317 44C58.8317 44.46 58.7917 44.86 58.7117 45.2ZM66.0317 44C66.0317 44.46 65.9917 44.86 65.9117 45.2H64.7117C64.7917 45.52 64.8317 45.92 64.8317 46.4C64.8317 46.86 64.7917 47.26 64.7117 47.6H62.3117C62.2317 47.26 62.1917 46.86 62.1917 46.4C62.1917 45.92 62.2317 45.52 62.3117 45.2H63.5117C63.4317 44.86 63.3917 44.46 63.3917 44C63.3917 43.52 63.4317 43.12 63.5117 42.8H62.3117C62.2317 42.46 62.1917 42.06 62.1917 41.6C62.1917 41.12 62.2317 40.72 62.3117 40.4H59.9117C59.8317 40.06 59.7917 39.66 59.7917 39.2C59.7917 38.72 59.8317 38.32 59.9117 38H63.5117C63.5917 38.32 63.6317 38.72 63.6317 39.2C63.6317 39.66 63.5917 40.06 63.5117 40.4H64.7117C64.7917 40.72 64.8317 41.12 64.8317 41.6C64.8317 42.06 64.7917 42.46 64.7117 42.8H65.9117C65.9917 43.12 66.0317 43.52 66.0317 44ZM58.5917 48.8C58.5917 48.32 58.6317 47.92 58.7117 47.6H62.3117C62.3917 47.92 62.4317 48.32 62.4317 48.8C62.4317 49.26 62.3917 49.66 62.3117 50H58.7117C58.6317 49.66 58.5917 49.26 58.5917 48.8ZM77.5434 46.4C77.5434 46.86 77.5034 47.26 77.4234 47.6H76.2234C76.3034 47.92 76.3434 48.32 76.3434 48.8C76.3434 49.26 76.3034 49.66 76.2234 50H69.6234C69.5434 49.66 69.5034 49.26 69.5034 48.8C69.5034 48.32 69.5434 47.92 69.6234 47.6H75.0234C74.9434 47.26 74.9034 46.86 74.9034 46.4C74.9034 45.92 74.9434 45.52 75.0234 45.2H70.2234C70.1434 44.86 70.1034 44.46 70.1034 44C70.1034 43.52 70.1434 43.12 70.2234 42.8H69.0234C68.9434 42.46 68.9034 42.06 68.9034 41.6C68.9034 41.12 68.9434 40.72 69.0234 40.4H70.2234C70.1434 40.06 70.1034 39.66 70.1034 39.2C70.1034 38.72 70.1434 38.32 70.2234 38H76.8234C76.9034 38.32 76.9434 38.72 76.9434 39.2C76.9434 39.66 76.9034 40.06 76.8234 40.4H71.4234C71.5034 40.72 71.5434 41.12 71.5434 41.6C71.5434 42.06 71.5034 42.46 71.4234 42.8H76.2234C76.3034 43.12 76.3434 43.52 76.3434 44C76.3434 44.46 76.3034 44.86 76.2234 45.2H77.4234C77.5034 45.52 77.5434 45.92 77.5434 46.4Z" fill="#542281"/>
</svg>
